<svg width="152" height="152" viewBox="0 0 152 152" fill="none" xmlns="http://www.w3.org/2000/svg">
<path d="M71.8931 59.4521C71.8931 61.1536 70.4751 62.4297 68.9154 62.4297C67.214 62.4297 65.9378 61.0118 65.9378 59.4521C65.9378 57.7506 67.3557 56.4745 68.9154 56.4745C70.4751 56.3327 71.8931 57.7506 71.8931 59.4521ZM83.5199 60.7282V91.6386C83.5199 100.43 76.2886 107.661 67.4975 107.661H36.5871C27.796 107.661 20.5647 100.43 20.5647 91.6386V60.7282C20.5647 51.9372 27.796 44.7058 36.5871 44.7058H67.4975C76.4304 44.7058 83.5199 51.9372 83.5199 60.7282ZM77.5647 60.7282C77.5647 55.1983 73.0274 50.661 67.4975 50.661H36.5871C31.0572 50.661 26.5199 55.1983 26.5199 60.7282V91.6386C26.5199 97.1685 31.0572 101.706 36.5871 101.706H67.4975C73.1692 101.706 77.7065 97.1685 77.7065 91.6386L77.5647 60.7282ZM68.4901 76.1834C68.4901 67.1088 61.1169 59.7357 52.0423 59.7357C42.9677 59.7357 35.5945 67.1088 35.5945 76.1834C35.5945 85.258 42.9677 92.6312 52.0423 92.6312C61.1169 92.6312 68.4901 85.258 68.4901 76.1834ZM62.5348 76.1834C62.5348 81.9969 57.8557 86.676 52.0423 86.676C46.2289 86.676 41.5498 81.9969 41.5498 76.1834C41.5498 70.37 46.2289 65.6909 52.0423 65.6909C57.8557 65.6909 62.5348 70.37 62.5348 76.1834Z" fill="#F2F2F2" stroke="#F2F2F2" stroke-width="0.00129104"/>
</svg>
