<svg width="56" height="56" viewBox="0 0 56 56" fill="none" xmlns="http://www.w3.org/2000/svg">
<path d="M28 56C12.6 56 0 43.4 0 28C0 12.6 12.6 0 28 0C43.4 0 56 12.6 56 28C56 43.4 43.4 56 28 56ZM22.1667 39.6667C23.5667 46.9 26.1333 51.3333 28 51.3333C29.8667 51.3333 32.4333 46.9 33.8333 39.6667H22.1667ZM38.7333 39.6667C38.0333 43.6333 36.8667 47.3667 35.4667 50.1667C40.8333 48.3 45.5 44.5667 48.3 39.6667H38.7333ZM7.7 39.6667C10.5 44.5667 15.1667 48.3 20.5333 50.1667C19.1333 47.3667 17.9667 43.6333 17.2667 39.6667H7.7ZM39.4333 35H50.4C50.8667 32.9 51.3333 30.3333 51.3333 28C51.3333 25.6667 50.8667 23.1 50.1667 21H39.2C39.6667 23.3333 39.6667 25.6667 39.6667 28C39.6667 30.3333 39.6667 32.6667 39.4333 35ZM21.4667 35H34.7667C35 32.9 35.2333 30.5667 35.2333 28C35.2333 25.4333 35 23.1 34.7667 21H21.4667C21.2333 23.1 21 25.4333 21 28C21 30.5667 21.2333 32.9 21.4667 35ZM5.83333 35H16.8C16.5667 32.6667 16.5667 30.3333 16.5667 28C16.5667 25.6667 16.5667 23.3333 16.8 21H5.83333C5.13333 23.1 4.66667 25.6667 4.66667 28C4.66667 30.3333 5.13333 32.9 5.83333 35ZM38.7333 16.3333H48.3C45.5 11.4333 40.8333 7.7 35.4667 5.83333C36.8667 8.63333 38.0333 12.3667 38.7333 16.3333ZM22.1667 16.3333H34.0667C32.6667 9.1 30.1 4.66667 28.2333 4.66667C26.3667 4.66667 23.5667 9.1 22.1667 16.3333ZM7.7 16.3333H17.2667C17.9667 12.3667 19.1333 8.63333 20.5333 5.83333C15.1667 7.7 10.7333 11.4333 7.7 16.3333Z" fill="#F2F2F2" stroke="#F2F2F2" stroke-width="0.00074"/>
</svg>
